<?xml version="1.0" encoding="UTF-8" standalone="no"?>
<!-- Created with Inkscape (http://www.inkscape.org/) -->

<svg
   width="210mm"
   height="297mm"
   viewBox="0 0 210 297"
   version="1.1"
   id="svg5"
   xml:space="preserve"
   sodipodi:docname="_drawing.svg"
   xmlns:inkscape="http://www.inkscape.org/namespaces/inkscape"
   xmlns:sodipodi="http://sodipodi.sourceforge.net/DTD/sodipodi-0.dtd"
   xmlns="http://www.w3.org/2000/svg"
   xmlns:svg="http://www.w3.org/2000/svg"><sodipodi:namedview
     id="namedview7"
     pagecolor="#ffffff"
     bordercolor="#999999"
     borderopacity="1"
     inkscape:showpageshadow="0"
     inkscape:pageopacity="0"
     inkscape:pagecheckerboard="0"
     inkscape:deskcolor="#d1d1d1"
     inkscape:document-units="mm"
     showgrid="false"
     inkscape:zoom="0.26897933"
     inkscape:cx="-790.02352"
     inkscape:cy="899.69738"
     inkscape:window-width="1920"
     inkscape:window-height="1009"
     inkscape:window-x="1912"
     inkscape:window-y="-8"
     inkscape:window-maximized="1"
     inkscape:current-layer="layer1" /><defs
     id="defs2" /><g
     inkscape:label="Layer 1"
     inkscape:groupmode="layer"
     id="layer1"><g
       id="g915"
       inkscape:export-filename="obs-camera-off.png"
       inkscape:export-xdpi="390.1"
       inkscape:export-ydpi="390.1"><rect
         style="opacity:1;fill:none;stroke-width:2"
         id="rect356"
         width="111.28806"
         height="111.28806"
         x="26.778688"
         y="29.908665" /><path
         style="fill:#ffffff;stroke-width:0.186694;opacity:0.2"
         d="m 37.508448,130.44921 c -0.523676,-0.52368 -0.545721,-0.61476 -0.545721,-2.25469 0,-1.63994 0.02204,-1.73101 0.545721,-2.25469 l 0.545721,-0.54572 h 44.368546 44.368545 l 0.54573,0.54572 c 0.52367,0.52368 0.54572,0.61475 0.54572,2.25469 0,1.63993 -0.0221,1.73101 -0.54572,2.25469 l -0.54573,0.54572 H 82.422715 38.054169 Z m 21.871111,-7.97404 c -0.54668,-0.69499 -0.555061,-2.70046 -0.01355,-3.24196 0.36929,-0.36929 0.622313,-0.37339 23.056714,-0.37339 26.218267,0 23.430077,-0.24277 23.430077,2.04008 0,1.17482 -0.0451,1.32876 -0.49191,1.68025 -0.49148,0.3866 -0.51136,0.38693 -23.043147,0.38693 H 59.766497 Z m 19.142526,-6.25675 c -5.373715,-0.15758 -8.139937,-0.35668 -15.142154,-1.08988 -4.321715,-0.45254 -12.330223,-1.5266 -15.305025,-2.05266 -3.601737,-0.63693 -6.245004,-2.40285 -7.690168,-5.13769 -1.143657,-2.16428 -2.395457,-7.21989 -2.981605,-12.041738 -0.448893,-3.692751 -0.452396,-12.815345 -0.0063,-16.386718 0.537072,-4.299643 1.66246,-9.112622 2.66231,-11.385961 0.996419,-2.265539 3.058879,-4.194187 5.436463,-5.083763 1.837121,-0.687352 14.084704,-2.406399 22.551667,-3.165306 13.399517,-1.201008 22.827593,-0.927846 38.922037,1.127732 6.46413,0.825591 11.24192,1.606986 12.31199,2.013581 3.34439,1.270764 5.21986,3.537125 6.4299,7.770097 1.15351,4.035155 1.69682,7.430932 2.00128,12.5085 0.45789,7.635945 -0.2582,15.297219 -1.99468,21.340686 -1.20536,4.19496 -3.24091,6.63373 -6.58248,7.88639 -1.16062,0.43509 -8.66637,1.58581 -15.14945,2.3226 -10.885586,1.23713 -17.663132,1.60287 -25.463788,1.37413 z m 8.941368,-8.55531 c 5.38841,-1.46865 9.733944,-4.7546 12.604897,-9.531409 3.06523,-5.100071 3.69997,-11.391731 1.73228,-17.170762 -1.77301,-5.207287 -5.92864,-9.709514 -11.046677,-11.96801 -8.088083,-3.569138 -17.67836,-1.579473 -23.491097,4.873635 -2.490838,2.765239 -4.464169,6.801063 -5.111945,10.454863 -0.330294,1.863031 -0.244735,5.598204 0.173197,7.5611 1.732076,8.135013 8.216338,14.503893 16.364732,16.073543 2.018079,0.38875 6.867451,0.22684 8.774613,-0.29296 z m -8.681263,-0.82079 c -7.311277,-1.41547 -13.293052,-7.082547 -15.257333,-14.454631 -0.420402,-1.577788 -0.482878,-2.186068 -0.483349,-4.705775 -5.6e-4,-2.540859 0.05904,-3.112423 0.487992,-4.686871 1.898844,-6.969488 7.107718,-12.204585 14.039177,-14.109845 1.675663,-0.460607 2.172986,-0.513181 4.854038,-0.513181 2.670039,0 3.180984,0.05346 4.813634,0.504185 7.166123,1.978074 12.269383,7.187507 14.161231,14.455848 0.35659,1.37 0.42615,2.107843 0.41889,4.443215 -0.008,2.408095 -0.0767,3.054259 -0.49371,4.612424 -1.540188,5.754447 -5.534559,10.549941 -10.8701,13.050261 -2.563516,1.2013 -4.032456,1.51204 -7.469857,1.58014 -1.879596,0.0373 -3.437029,-0.0279 -4.200613,-0.17577 z m 6.347588,-1.61644 c 4.32821,-0.67463 8.737177,-3.25422 11.267576,-6.592422 1.027481,-1.355517 1.708358,-2.518499 1.560838,-2.666029 -0.11219,-0.11219 -30.966929,-0.103965 -31.079162,0.0077 -0.04985,0.04986 0.142587,0.493481 0.427625,0.985856 2.364863,4.085085 7.016152,7.271545 11.942273,8.181285 1.610931,0.29751 4.264636,0.33499 5.88085,0.0832 z m -0.21176,-11.666341 c 2.107805,-0.981217 3.137097,-2.16435 3.674811,-4.224027 0.782411,-2.996854 -0.529887,-5.92002 -3.316652,-7.38792 -0.888445,-0.467984 -1.172119,-0.519645 -2.853462,-0.519645 -1.675881,0 -1.966597,0.05256 -2.840842,0.513258 -1.822242,0.960321 -3.02433,2.548468 -3.427609,4.528392 -0.55203,2.710224 0.750836,5.577989 3.068923,6.755043 1.348834,0.684897 1.708715,0.770909 3.292878,0.786999 1.121473,0.01157 1.599623,-0.07865 2.401953,-0.4521 z M 97.718832,78.767277 c -1.744856,-3.004398 -4.783463,-5.773981 -7.870506,-7.173718 -2.17986,-0.988401 -4.523765,-1.482421 -7.145561,-1.506041 -4.905043,-0.04421 -8.755729,1.384971 -12.176128,4.519151 -1.249419,1.144863 -3.000711,3.318812 -3.577298,4.440658 l -0.311853,0.60675 h 15.798183 15.798183 z m -37.54626,17.102471 c 0.140791,-0.223596 0.08313,-0.679102 -0.212697,-1.68025 -1.21541,-4.113239 -1.246844,-8.119775 -0.09832,-12.532455 0.53581,-2.058624 0.49451,-2.429095 -0.261109,-2.342183 -0.4341,0.04999 -0.562857,0.205 -0.824206,0.992642 -1.296816,3.908276 -1.428523,9.54939 -0.320379,13.722013 0.559372,2.106275 1.150315,2.73973 1.716719,1.840233 z"
         id="path302" /></g></g></svg>
